<?xml version="1.0" encoding="UTF-8"?>
<svg id="Layer_1" data-name="Layer 1" xmlns="http://www.w3.org/2000/svg" version="1.1" viewBox="0 0 48 48">
  <defs>
    <style>
      .cls-1 {
        fill: #00ab8e;
      }

      .cls-1, .cls-2, .cls-3, .cls-4 {
        stroke-width: 0px;
      }

      .cls-2, .cls-3, .cls-4 {
        fill: #fff;
      }

      .cls-3, .cls-4 {
        display: none;
      }

      .cls-4 {
        fill-rule: evenodd;
      }
    </style>
  </defs>
  <rect class="cls-1" width="48" height="48" rx="12" ry="12"/>
  <path class="cls-3" d="M27.9,12.4c-2.5,0-4.9,1.2-6.3,3.3-1.4,2.1-1.8,4.7-.9,7.1l-7.9,6.7c-.2.1-.3.4-.3.6v4.6c0,.4.3.8.8.8h4.6c.4,0,.8-.3.8-.8v-2.3h2.3c.4,0,.8-.3.8-.8v-2.3h2.3c.2,0,.4,0,.5-.2l1.8-1.5c.5.1,1,.2,1.5.2,2.8,0,5.3-1.5,6.7-3.9s1.4-5.3,0-7.7-3.9-3.9-6.7-3.9h0ZM29.8,20.1c-.8,0-1.5-.5-1.8-1.2s-.1-1.5.4-2.1c.6-.6,1.4-.7,2.1-.4.7.3,1.2,1,1.2,1.8s-.9,1.9-1.9,1.9h0Z"/>
  <path class="cls-4" d="M17.2,21.4v-2.3c0-3.7,3-6.8,6.8-6.8s6.8,3,6.8,6.8v2.3h.5c1,0,1.8.8,1.8,1.8v10.7c0,1-.8,1.8-1.8,1.8h-14.6c-1,0-1.8-.8-1.8-1.8v-10.7c0-1,.8-1.8,1.8-1.8,0,0,.5,0,.5,0ZM20.4,19.1c0-2,1.6-3.6,3.6-3.6s3.6,1.6,3.6,3.6v2.3h-7.3v-2.3h.1ZM24.9,28.2c.5-.3.8-.8.8-1.4,0-.9-.8-1.7-1.7-1.7s-1.7.8-1.7,1.7.3,1.1.8,1.4v2.9c0,.5.4.9.9.9s.9-.4.9-.9c0,0,0-2.9,0-2.9Z"/>
  <path class="cls-4" d="M18.3,14.4c-.7,0-1.1,0-1.8-.1-.5,0-.9-.2-1.3.3-.2.2-.3.5-.3.9v8.1c0,.8,0,1.7.2,2.4.2.9.3,1.2.6,2,.2.4.4.9.7,1.3.4.6.7,1,1.1,1.5,0,.1.2.2.3.3.2.2.4.4.7.6h.2c0,.1.1.1.2.2.3.2,2.3,1.6,2.7,1.9.3.2.5.4.8.6.5.3,1.1.9,1.7.9s.7-.2.9-.4c.3-.2.5-.4.8-.6.3-.2.5-.4.8-.6l1.9-1.4c1.1-.7,1.9-1.5,2.7-2.5l.5-.8c.4-.7.8-1.4,1-2.3,0-.3.2-.7.3-1,.2-.7.2-1.6.2-2.4v-8c0-.4,0-.7-.3-.9-.5-.6-1.1-.3-1.8-.2-1.2.2-2.7,0-3.8-.3l-.7-.2c-.5-.2-1.4-.6-1.8-1-.8-.6-1.4,0-2,.4l-.6.3c-.2.1-.4.2-.7.3-.9.3-2.1.6-3.2.6h0Z"/>
  <path class="cls-2" d="M21.4,12c2.6,0,4.9,1.1,6.6,2.8s2.8,4,2.8,6.6-.2,1.9-.4,2.8c-.2.8-.6,1.5-1,2.2l6.2,5.6c.2,0,.3.3.4.5,0,.2,0,.4,0,.6s0,.4,0,.6c0,.2-.2.4-.3.5l-1.3,1.3c0,0-.3.2-.5.3-.2,0-.4,0-.6,0s-.4,0-.6,0-.4-.2-.5-.4l-5.6-6.2c-.7.4-1.4.8-2.2,1-.9.3-1.8.4-2.8.4-2.6,0-4.9-1.1-6.6-2.8s-2.8-4-2.8-6.6,1.1-4.9,2.8-6.6c1.7-1.7,4-2.8,6.6-2.8h0l-.2.2ZM21.4,14.4c-1.9,0-3.7.8-5,2.1-1.3,1.3-2.1,3-2.1,5s.8,3.7,2.1,5c1.3,1.3,3,2.1,5,2.1s3.7-.8,5-2.1c1.3-1.3,2.1-3,2.1-5s-.8-3.7-2.1-5c-1.3-1.3-3-2.1-5-2.1Z"/>
</svg>