<?xml version="1.0" encoding="UTF-8"?>
<svg id="Layer_1" data-name="Layer 1" xmlns="http://www.w3.org/2000/svg" version="1.1" viewBox="0 0 48 48">
  <defs>
    <style>
      .cls-1 {
        fill: #ae2572;
      }

      .cls-1, .cls-2 {
        stroke-width: 0px;
      }

      .cls-2 {
        fill: #fff;
      }
    </style>
  </defs>
  <rect class="cls-1" width="48" height="48" rx="12" ry="12"/>
  <path class="cls-2" d="M27.9,12.4c-2.5,0-4.9,1.2-6.3,3.3-1.4,2.1-1.8,4.7-.9,7.1l-7.9,6.7c-.2.1-.3.4-.3.6v4.6c0,.4.3.8.8.8h4.6c.4,0,.8-.3.8-.8v-2.3h2.3c.4,0,.8-.3.8-.8v-2.3h2.3c.2,0,.4,0,.5-.2l1.8-1.5c.5.1,1,.2,1.5.2,2.8,0,5.3-1.5,6.7-3.9s1.4-5.3,0-7.7-3.9-3.9-6.7-3.9h0ZM29.8,20.1c-.8,0-1.5-.5-1.8-1.2s-.1-1.5.4-2.1c.6-.6,1.4-.7,2.1-.4.7.3,1.2,1,1.2,1.8s-.9,1.9-1.9,1.9h0Z"/>
</svg>