<?xml version="1.0" encoding="UTF-8"?>
<svg xmlns="http://www.w3.org/2000/svg" xmlns:xlink="http://www.w3.org/1999/xlink" version="1.1" viewBox="0 0 700 450">
  <defs>
    <style>
      .cls-1 {
        fill: #bdbdbd;
      }

      .cls-2 {
        fill: url(#linear-gradient);
      }

      .cls-3 {
        fill: #757575;
      }

      .cls-4 {
        fill: #9e9e9e;
      }

      .cls-5 {
        display: none;
      }

      .cls-6 {
        fill: #616161;
      }

      .cls-7 {
        fill: #eee;
      }
    </style>
    <linearGradient id="linear-gradient" x1="218.1" y1="229.9" x2="439" y2="229.9" gradientUnits="userSpaceOnUse">
      <stop offset="0" stop-color="#757575"/>
      <stop offset="1" stop-color="#616161"/>
    </linearGradient>
  </defs>
  <!-- Generator: Adobe Illustrator 28.6.0, SVG Export Plug-In . SVG Version: 1.2.0 Build 709)  -->
  <g>
    <g id="Layer_1">
      <g class="cls-5">
        <rect class="cls-7" width="700" height="450"/>
      </g>
      <g>
        <path class="cls-6" d="M563,196.2l-39.8-19.9-74,37-25.4-12.7-38.5-82.5,47.8-23.9,97.9,49,20-10,29.3,14.6-20,10,39.8,19.9-37,18.5ZM493.9,161.6l-37-18.5c-10-5-19.8-10.4-29.8-16.2l-1,.5c5.4,8.1,10.8,15.2,15.7,23.3l14.1,29.4.5.3,37.5-18.8Z"/>
        <polygon class="cls-1" points="560.2 157.7 560.2 194.7 563 196.2 600 177.6 560.2 157.7"/>
        <polygon class="cls-3" points="530.9 143.1 530.9 180.1 523.2 176.2 493.9 190.8 493.9 161.6 460 145.8 432.8 130.1 433 94.1 530.9 143.1"/>
        <polygon class="cls-1" points="493.9 161.6 493.9 190.8 456.1 209.8 456.4 180.3 493.9 161.6"/>
        <polygon class="cls-6" points="550.9 133.1 550.9 190.1 560.2 194.7 560.2 157.7 580.2 147.7 550.9 133.1"/>
        <polygon class="cls-4" points="426.1 127.4 426.1 201.7 449.2 213.2 456 209.8 456.4 180.3 441.7 150.7 426.1 127.4"/>
        <path class="cls-6" d="M277.8,338.8l-39.8-19.9-74,37-25.4-12.7-38.5-82.5,47.8-23.9,97.9,49,20-10,29.3,14.6-20,10,39.8,19.9-37,18.5ZM208.7,304.2l-37-18.5c-10-5-19.8-10.4-29.8-16.2l-1,.5c5.4,8.1,10.8,15.2,15.7,23.3l14.1,29.4.5.3,37.5-18.8Z"/>
        <path class="cls-2" d="M390.3,198.2c51.6,25.8,66.3,54,23.6,75.3-43.2,21.6-101,11.7-148.5-11.8-48.3-24.2-66-53.6-22.9-75.2,44.7-22.4,102-11.2,147.7,11.7ZM304.8,242c38,19.3,65.5,23.8,80.7,16.2,15.2-7.6,4.4-21.2-33.7-40.2-37-18.5-64.5-24.3-80.2-16.4-14.4,7.2-5.9,21.2,33.1,40.5Z"/>
        <polygon class="cls-1" points="275 300.4 275 337.4 277.8 338.8 314.8 320.3 275 300.4"/>
        <polygon class="cls-3" points="245.7 285.7 245.7 322.7 238 318.9 208.7 333.5 208.7 304.2 174.8 288.4 147.6 272.7 147.8 236.8 245.7 285.7"/>
        <polygon class="cls-1" points="208.7 304.2 208.7 333.5 170.9 352.4 171.2 323 208.7 304.2"/>
        <polygon class="cls-6" points="265.7 275.7 265.7 332.7 275 337.4 275 300.4 295 290.3 265.7 275.7"/>
        <polygon class="cls-4" points="140.9 270 140.9 344.3 164 355.9 170.8 352.5 171.2 323 156.5 293.3 140.9 270"/>
        <path class="cls-4" d="M385.5,258.2c-15.2,7.6-42.7,3.1-80.7-16.2-27.2-13.4-39.5-24.3-39.7-32.1h0s.6,51.8.6,51.8c39.8,19.7,86.9,29.8,126.4,19.8v-33.6h-.3c1.2,4.1-.9,7.5-6.3,10.2Z"/>
      </g>
    </g>
  </g>
</svg>