<?xml version="1.0" encoding="UTF-8"?>
<svg id="Layer_1" data-name="Layer 1" xmlns="http://www.w3.org/2000/svg" version="1.1" viewBox="0 0 24 24">
  <defs>
    <style>
      .cls-1 {
        fill: #0bd;
      }

      .cls-1, .cls-2 {
        stroke-width: 0px;
      }

      .cls-2 {
        fill: #0e0c15;
        fill-rule: evenodd;
      }
    </style>
  </defs>
  <path class="cls-1" d="M12,0h0c6.6,0,12,5.4,12,12h0c0,6.6-5.4,12-12,12h0C5.4,24,0,18.6,0,12h0C0,5.4,5.4,0,12,0Z"/>
  <path class="cls-2" d="M17.8,7.5c.3.3.3.7,0,.9l-7.3,7.3c-.3.3-.7.3-.9,0l-3.3-3.3c-.3-.3-.3-.7,0-.9.3-.3.7-.3.9,0l2.9,2.9,6.9-6.9c.3-.3.7-.3.9,0Z"/>
</svg>