<?xml version="1.0" encoding="UTF-8"?>
<svg xmlns="http://www.w3.org/2000/svg" version="1.1" viewBox="0 0 24 24">
  <defs>
    <style>
      .cls-1 {
        fill: #00ab8e;
      }

      .cls-2 {
        fill: #0e0c15;
        fill-rule: evenodd;
      }
    </style>
  </defs>
  <!-- Generator: Adobe Illustrator 28.6.0, SVG Export Plug-In . SVG Version: 1.2.0 Build 709)  -->
  <g>
    <g id="Layer_1">
      <path class="cls-1" d="M12,0h0c6.6,0,12,5.4,12,12h0c0,6.6-5.4,12-12,12h0C5.4,24,0,18.6,0,12h0C0,5.4,5.4,0,12,0Z"/>
      <path class="cls-2" d="M17.8,7.5c.3.3.3.7,0,.9l-7.3,7.3c-.3.3-.7.3-.9,0l-3.3-3.3c-.3-.3-.3-.7,0-.9.3-.3.7-.3.9,0l2.9,2.9,6.9-6.9c.3-.3.7-.3.9,0h-.1Z"/>
    </g>
  </g>
</svg>