<?xml version="1.0" encoding="UTF-8"?>
<svg width="150px" height="18px" viewBox="0 0 150 18" version="1.1" xmlns="http://www.w3.org/2000/svg" xmlns:xlink="http://www.w3.org/1999/xlink">
    <!-- Generator: Sketch 55.2 (78181) - https://sketchapp.com -->
    <title># Logo</title>
    <desc>Created with Sketch.</desc>
    <g id="Symbols" stroke="none" stroke-width="1" fill="none" fill-rule="evenodd">
        <g id="Essential/Desktop/TopNav/Default" transform="translate(-48.000000, -23.000000)">
            <g id="#-Logo" transform="translate(48.000000, 23.000000)">
                <path d="M0,0.535156831 C8.64888124,-0.237557455 20.6540448,0.405299688 20.6540448,0.405299688 L20.6540448,3.55529969 L12.5215146,3.55529969 L12.5215146,17.1195854 L8.51979346,17.1195854 L8.51979346,3.55529969 L0.12908778,3.55529969 L0,0.535156831 Z M43.0043029,0.276728259 L47.1376936,0.535156831 L47.1376936,17.3201568 L43.0043029,17.5052997 L43.0043029,10.178014 L32.0137694,10.178014 L32.0137694,17.5052997 L27.8829604,17.3201568 L27.8829604,0.535156831 L32.0137694,0.276728259 L32.0137694,7.09101397 L43.0043029,7.09101397 L43.0043029,0.276728259 Z M53.4423408,17.1195854 L62.9948365,0.535156831 L66.9965577,0.535156831 L76.6781411,17.1195854 L72.1600688,17.5052997 L65.060241,4.5195854 L64.6729776,4.5195854 L57.444062,17.3754425 L53.4423408,17.1195854 Z M82.7452668,17.1195854 L82.7452668,0.662442545 L86.4888124,0.662442545 L86.4888124,14.1611568 L99.6557659,14.1611568 L99.6557659,17.1195854 C99.6557659,17.1195854 91.0068847,18.9182997 82.7452668,17.1195854 Z M106.110155,17.2481568 L106.110155,0.535156831 C106.110155,0.535156831 117.986231,-0.750557455 124.053356,0.663728259 L124.053356,3.74944254 L110.33778,3.87801397 L110.33778,7.22087112 L118.244406,7.22087112 L118.244406,10.4351568 L110.33778,10.4351568 L110.33778,14.2922997 L124.311532,14.2922997 L124.311532,17.378014 C124.311532,17.3754425 113.984509,18.791014 106.110155,17.2481568 Z M149.612737,0.405299688 L149.612737,3.74944254 L134.638554,3.74944254 L134.638554,7.09229969 C134.638554,7.09229969 145.223752,7.09229969 146.901893,7.09229969 C148.580034,7.09229969 149.870912,8.5065854 149.870912,9.92087112 C149.870912,11.3338711 149.870912,13.5208711 149.870912,14.291014 C149.870912,17.1195854 146.901893,17.8922997 144.192341,17.8922997 C140.061532,17.8922997 133.21988,17.7624425 130.895009,17.378014 L130.895009,14.2922997 L146.256454,14.2922997 L146.256454,10.5611568 C146.256454,10.5611568 136.574871,10.5611568 134.767642,10.5611568 C132.961704,10.5611568 131.025387,9.53387112 131.025387,8.24815683 C131.025387,6.96244254 131.025387,4.90401397 131.025387,3.23387112 C131.025387,1.56372826 133.348967,0.405299688 135.156196,0.405299688 C136.962134,0.405299688 149.612737,0.405299688 149.612737,0.405299688 Z" id="Combined-Shape" fill="#FFFFFF"></path>
                <path d="M67.4031842,12.2325854 C67.4031842,13.6545854 66.2478485,14.804014 64.8214286,14.804014 C63.3950086,14.804014 62.239673,13.6545854 62.239673,12.2325854 C62.239673,10.8144425 63.3950086,9.66244254 64.8214286,9.66244254 C66.2478485,9.66244254 67.4031842,10.8157283 67.4031842,12.2325854" id="Fill-3" fill="#48BAC2"></path>
            </g>
        </g>
    </g>
</svg>