<?xml version="1.0" encoding="UTF-8"?>
<svg xmlns="http://www.w3.org/2000/svg" version="1.1" viewBox="0 0 200 200">
  <defs>
    <style>
      .cls-1 {
        fill-rule: evenodd;
      }

      .cls-1, .cls-2 {
        fill: #fff;
      }

      .cls-3 {
        fill: #43c6eb;
      }

      .cls-4 {
        fill: #139fb5;
      }

      .cls-5 {
        display: none;
      }
    </style>
  </defs>
  <!-- Generator: Adobe Illustrator 28.6.0, SVG Export Plug-In . SVG Version: 1.2.0 Build 709)  -->
  <g>
    <g id="Layer_1" class="cls-5">
      <g>
        <g>
          <path class="cls-3" d="M54.7,121.3h-8.3v12.4h8.3c3.4,0,6-3,6-6.1,0-3.5-2.7-6.4-6-6.4Z"/>
          <path class="cls-3" d="M88.3,121.5h-8.3v22.4h8.3c13.5,0,14.1-22.4,0-22.4Z"/>
          <path class="cls-3" d="M156.3,93.8H18.7c-3.4,0-6.2,2.8-6.2,6.3v62.5c0,3.4,2.8,6.2,6.2,6.2h137.5c3.4,0,6.2-2.8,6.2-6.2v-62.5c0-3.4-2.8-6.3-6.2-6.3ZM54.7,140h-8.3v6.6c0,2.2-1.4,3.4-3.2,3.4s-3.4-1.2-3.4-3.5v-28.1c0-1.6,1.3-3.5,3.4-3.5h11.5c6.5,0,12.3,4.3,12.3,12.7,0,7.9-5.8,12.3-12.3,12.3ZM88.7,150h-11.9c-1.6,0-3.5-.9-3.5-3.1v-28.4c0-1.8,1.8-3.1,3.5-3.1h11.4c22.8,0,22.3,34.6.4,34.6ZM133.2,121.9h-14.5v7.9h12.7c1.8,0,3.6,1.8,3.6,3.6s-1.8,3-3.6,3h-12.7v10.5c0,1.8-1.2,3.1-3,3.1s-3.5-1.3-3.5-3.1v-28.4c0-1.8,1.4-3.1,3.5-3.1h17.5c2.2,0,3.5,1.3,3.5,3.1s-1.3,3.4-3.5,3.4Z"/>
        </g>
        <path class="cls-3" d="M181.3,47.4L140.1,6.3c-3.6-3.6-10-6.3-15.1-6.3H56.2c-10.3,0-18.8,8.4-18.8,18.8v62.5c0,3.5,2.8,6.2,6.2,6.2s6.2-2.8,6.2-6.2V18.8c0-3.4,2.8-6.2,6.3-6.2h56.2c6.9,0,12.5,5.6,12.5,12.5v23.4c0,7.7,6.3,14.1,14.1,14.1h23.4c6.9,0,12.5,5.6,12.5,12.5v106.2c0,3.4-2.8,6.2-6.2,6.2H56.2c-3.5,0-6.3-2.8-6.3-6.2s-2.8-6.2-6.2-6.2-6.2,2.8-6.2,6.2c0,10.3,8.4,18.8,18.8,18.8h112.5c10.3,0,18.8-8.4,18.8-18.8V62.5c0-5.1-2.6-11.5-6.2-15.1Z"/>
      </g>
    </g>
    <g id="Layer_2" class="cls-5">
      <path class="cls-1" d="M122.4,200c-2.8,0-5.5-.7-7.9-2.1-5.2-3-8.2-8.6-7.9-14.6.5-8.5,1.1-17.6,1.3-21.7.1-2.4.9-4.8,2.1-7l37.7-65.4c2.8-4.9,8.1-7.9,13.7-7.9s5.5.7,7.9,2.1l16.8,9.7c3.7,2.1,6.3,5.5,7.4,9.6,1.1,4.1.5,8.3-1.6,12l-37.7,65.4c-1.2,2.1-2.9,3.9-5,5.3l-5.7,3.8c-3.6,2.4-8.1,5.3-12.4,8.2-2.6,1.7-5.6,2.6-8.7,2.6h0ZM120.1,161.4l-1.8,29.8,24.9-16.4,40-69.2-23.1-13.3-40,69.2ZM31.5,187.2c-14.1,0-25.5-11.5-25.5-25.5V25.5c0-6.8,2.7-13.2,7.5-18C18.2,2.7,24.7,0,31.5,0h116.6c14.1,0,25.5,11.5,25.5,25.5v29c0,3.4-2.7,6.1-6.1,6.1s-6.1-2.7-6.1-6.1v-29c0-7.4-6-13.3-13.3-13.3H31.5c-3.5,0-7,1.4-9.4,3.9-2.5,2.5-3.9,5.9-3.9,9.4v136.1c0,7.4,6,13.3,13.3,13.3h48c3.4,0,6.1,2.7,6.1,6.1s-2.7,6.1-6.1,6.1H31.5ZM50.9,148.3c-3.4,0-6.1-2.7-6.1-6.1s2.7-6.1,6.1-6.1h29.2c3.4,0,6.1,2.7,6.1,6.1s-2.7,6.1-6.1,6.1h-29.2ZM50.9,119.1c-3.4,0-6.1-2.7-6.1-6.1s2.7-6.1,6.1-6.1h48.6c3.4,0,6.1,2.7,6.1,6.1s-2.7,6.1-6.1,6.1h-48.6ZM50.9,89.9c-3.4,0-6.1-2.7-6.1-6.1v-38.9c0-3.4,2.7-6.1,6.1-6.1h38.9c3.4,0,6.1,2.7,6.1,6.1v38.9c0,3.4-2.7,6.1-6.1,6.1h-38.9ZM57,77.8h26.7v-26.7h-26.7v26.7ZM119,80.2c-3.4,0-6.1-2.7-6.1-6.1s2.7-6.1,6.1-6.1h9.7c3.4,0,6.1,2.7,6.1,6.1s-2.7,6.1-6.1,6.1h-9.7ZM119,51.1c-3.4,0-6.1-2.7-6.1-6.1s2.7-6.1,6.1-6.1h9.7c3.4,0,6.1,2.7,6.1,6.1s-2.7,6.1-6.1,6.1h-9.7Z"/>
    </g>
    <g id="Layer_3" class="cls-5">
      <path class="cls-4" d="M200,100h0c0-26.5-10.5-51.9-29.2-70.6C152.1,10.7,126.7,0,100.3,0h-.3c-3.4,0-6.9.2-10.3.5-24.6,2.6-47.4,14.2-63.9,32.5C9.2,51.4,0,75.2,0,100H0c0,26.6,10.5,52,29.3,70.7,18.7,18.7,44.2,29.3,70.7,29.3h0c5.1,0,10.2-.4,15.3-1.2,4.6-.7,9.2-1.7,13.7-3.1.7-.2,1.4-.4,2.1-.6,14.2-4.6,27.1-12.3,37.8-22.6,1.3-1.2,2.5-2.4,3.7-3.7,17.6-18.5,27.4-43.2,27.4-68.8h0ZM168.8,158.2c-7.1-6.8-15.2-12.5-24-16.9,4.1-11.7,6.7-23.9,7.5-36.3h37.7c-1,19.6-8.5,38.3-21.2,53.2h0ZM158.7,168.3c-.3.3-.6.5-.9.7-.8.7-1.7,1.4-2.6,2.1-.4.3-.9.6-1.3,1-.7.6-1.5,1.1-2.3,1.7-.5.3-1,.7-1.5,1-.7.5-1.5,1-2.2,1.5-.5.3-1,.6-1.6,1-.7.4-1.5.9-2.2,1.3-.5.3-1.1.6-1.7.9-.7.4-1.5.8-2.2,1.2-.6.3-1.1.6-1.7.8-.7.4-1.5.7-2.3,1-.6.3-1.2.5-1.8.8-.8.3-1.5.6-2.3.9-.6.2-1.2.5-1.8.7-.8.3-1.6.5-2.3.8-.6.2-1.2.4-1.8.6-.8.2-1.6.5-2.4.7-.6.2-1.2.3-1.9.5-.8.2-1.6.4-2.4.6-.6.1-1.2.3-1.9.4-.8.2-1.7.3-2.5.5h-.5c0,0,0,0,0,0,11.2-11,20.1-24,26.3-38.3,7.6,3.9,14.7,8.9,20.9,14.8-1.1,1-2.1,2-3.3,3h0ZM82.2,188.4c-.6-.1-1.3-.3-1.9-.4-.8-.2-1.6-.4-2.4-.6-.6-.2-1.3-.3-1.9-.5-.8-.2-1.6-.4-2.4-.7-.6-.2-1.2-.4-1.9-.6-.8-.3-1.6-.5-2.3-.8-.6-.2-1.2-.4-1.8-.7-.8-.3-1.5-.6-2.3-.9-.6-.3-1.2-.5-1.8-.8-.8-.3-1.5-.7-2.2-1-.6-.3-1.2-.6-1.7-.8-.7-.4-1.5-.8-2.2-1.2-.6-.3-1.1-.6-1.7-.9-.7-.4-1.5-.9-2.2-1.3-.5-.3-1.1-.6-1.6-1-.7-.5-1.5-1-2.2-1.5-.5-.3-1-.6-1.5-1-.8-.6-1.5-1.1-2.3-1.7-.4-.3-.8-.6-1.3-.9-.9-.7-1.8-1.5-2.7-2.2-.2-.2-.5-.4-.7-.6-1.1-1-2.2-2-3.3-3h0c6.2-5.9,13.2-10.9,20.9-14.8,6.2,14.4,15.2,27.4,26.4,38.3h-.5c-.8-.2-1.7-.4-2.5-.5h0ZM31.2,41.9c7,6.7,15,12.3,23.7,16.7-4.4,11.7-6.8,24-7.3,36.5H10.1c1-19.6,8.5-38.2,21.2-53.2h0ZM41.3,31.7c.3-.3.6-.5.9-.8.8-.7,1.7-1.4,2.5-2.1.4-.3.9-.7,1.3-1,.7-.6,1.5-1.1,2.2-1.7.5-.3,1-.7,1.5-1,.7-.5,1.4-1,2.2-1.4.5-.3,1.1-.7,1.6-1,.7-.4,1.4-.9,2.2-1.3.6-.3,1.1-.6,1.7-.9.7-.4,1.5-.8,2.2-1.2.6-.3,1.2-.6,1.7-.8.7-.3,1.5-.7,2.2-1,.6-.3,1.2-.5,1.8-.8.8-.3,1.5-.6,2.3-.9.6-.2,1.2-.5,1.8-.7.8-.3,1.5-.5,2.3-.8.6-.2,1.2-.4,1.9-.6.8-.2,1.6-.5,2.4-.7.6-.2,1.3-.3,1.9-.5.8-.2,1.6-.4,2.4-.6.6-.1,1.2-.3,1.9-.4.8-.2,1.7-.3,2.5-.5.3,0,.7-.1,1-.2h0c-11.1,11.2-20.2,24.1-26.9,38.4-7.6-3.9-14.6-8.8-20.8-14.7,1.1-1,2.2-2,3.3-3h0ZM117.8,11.7c.6.1,1.2.3,1.9.4.8.2,1.6.4,2.5.6.6.2,1.2.3,1.9.5.8.2,1.6.4,2.4.7.6.2,1.2.4,1.8.6.8.3,1.6.5,2.3.8.6.2,1.2.4,1.8.7.8.3,1.5.6,2.3.9.6.2,1.2.5,1.8.7.8.3,1.5.7,2.3,1,.6.3,1.1.5,1.7.8.8.4,1.5.8,2.2,1.2.5.3,1.1.6,1.6.9.7.4,1.5.9,2.2,1.3.5.3,1,.6,1.5.9.8.5,1.5,1,2.3,1.5.5.3,1,.6,1.4,1,.8.6,1.6,1.1,2.3,1.7.4.3.8.6,1.2.9.9.7,1.8,1.5,2.7,2.2.3.2.5.4.8.6,1.1,1,2.2,2,3.3,3h0c-6.2,5.9-13.2,10.8-20.8,14.7-6.7-14.2-15.8-27.2-26.9-38.3.3,0,.7.1,1,.2.8.1,1.7.3,2.5.4h0ZM104.9,184.6v-43.8c9.3.5,18.5,2.4,27.2,5.8-6.2,14.5-15.5,27.4-27.2,38h0ZM132.2,53.4c-8.7,3.4-17.9,5.3-27.2,5.8V15.7c11.3,10.8,20.6,23.6,27.2,37.7ZM95.1,15.7v43.5c-9.3-.5-18.5-2.5-27.3-5.8,6.7-14.1,15.9-26.9,27.3-37.7h0ZM64,62.6h0c9.9,3.9,20.4,6.1,31,6.6v25.9h-37.5c.5-11.1,2.7-22,6.5-32.4h0ZM95.1,104.9v25.9c-10.5.5-20.9,2.7-30.8,6.5-3.6-10.4-5.9-21.3-6.7-32.3h37.4ZM95.1,140.7v43.8c-11.6-10.6-20.9-23.6-27.2-38,8.7-3.3,17.9-5.3,27.2-5.8h0ZM135.7,137.3c-9.8-3.8-20.2-6-30.8-6.5v-25.9h37.4c-.8,11-3,21.9-6.7,32.3h0ZM104.9,95v-25.9c10.6-.5,21.1-2.7,31-6.6,3.8,10.4,6,21.4,6.5,32.5h-37.5ZM47.7,104.9c.9,12.4,3.4,24.6,7.5,36.3-8.8,4.4-16.9,10.1-24,16.9-12.7-14.9-20.1-33.6-21.2-53.2h37.7ZM152.4,95c-.5-12.5-3-24.8-7.3-36.5,8.7-4.4,16.7-10,23.7-16.7,12.7,14.9,20.1,33.6,21.2,53.2h-37.6Z"/>
    </g>
    <g id="Layer_5" class="cls-5">
      <path class="cls-1" d="M151.8,200c-1.2,0-2.4-.4-3.3-1.2l-33.6-26.9H17.8c-8.5,0-15.4-6.9-15.4-15.4V15.4C2.4,6.9,9.3,0,17.8,0h123.9c8.5,0,15.4,6.9,15.4,15.4v51.6l12-12c3.1-3.1,7.3-4.9,11.8-4.9s8.7,1.7,11.8,4.9c6.5,6.5,6.5,17.1,0,23.6l-35.6,35.6v80.5c0,1.2-.4,2.4-1.2,3.3-1,1.3-2.5,2-4.2,2ZM17.8,10.7c-2.7,0-4.7,2-4.7,4.7v141.2c0,2.7,2,4.7,4.7,4.7h98.9c1.2,0,2.4.4,3.4,1.2l26.3,21.1v-58.7l-12.1,12.1c-.8.8-1.7,1.3-2.8,1.5l-19.8,3.8c-.3,0-.7,0-1,0s-.7,0-1,0c-1.4-.3-2.6-1.1-3.4-2.3-.8-1.2-1.1-2.6-.8-4l3.8-19.8c.2-1.1.7-2,1.5-2.8l35.7-35.7V15.4c0-2.7-2-4.7-4.7-4.7H17.8ZM117.5,130.2l9.1-1.7-7.3-7.3-1.7,9.1ZM134.7,121.5l29.4-29.4,11-11-8.5-8.5-10.5,10.5-.5.5-29.4,29.4,8.5,8.5ZM182.6,73.5l2.5-2.5c2.4-2.4,2.4-6.1,0-8.5-1.2-1.2-2.7-1.8-4.2-1.8s-3.1.6-4.2,1.8l-2.6,2.6,8.5,8.5ZM44.3,121.4c-1.5,0-2.8-.6-3.8-1.6-1-1-1.6-2.4-1.5-3.8,0-2.9,2.4-5.3,5.3-5.3h49.4c2.9,0,5.3,2.4,5.3,5.3,0,3-2.4,5.4-5.3,5.4h-49.4ZM44.3,81.3c-2.9,0-5.3-2.4-5.3-5.3h0c0-3,2.4-5.4,5.3-5.4h70.9c3,0,5.3,2.4,5.3,5.4,0,2.9-2.4,5.3-5.3,5.3H44.3ZM44.3,46.1c-2.9,0-5.3-2.4-5.3-5.3,0-2.9,2.4-5.3,5.3-5.3h70.9c2.9,0,5.3,2.4,5.3,5.3,0,2.9-2.4,5.3-5.3,5.3H44.3Z"/>
    </g>
    <g id="Layer_6" class="cls-5">
      <path class="cls-2" d="M176.7,92.5c-2.9-18.9-19.1-33.1-38.7-33.1s-7.8.6-11.5,1.7c-7.8-17.3-25.3-28.7-45-28.7s-49.4,22.2-49.4,49.4.2,5.3.6,7.9C14.2,92.8,0,109,0,128.4s17.6,39.2,39.2,39.2h121.6c21.6,0,39.2-17.6,39.2-39.2s-9.4-29.6-23.3-35.9h0ZM160.8,153.3H39.2c-13.7,0-24.9-11.2-24.9-24.9s11.2-24.9,24.9-24.9h.5c.4,0,.8,0,1.3,0,2.4.3,4.9-.7,6.5-2.7,1.5-2,1.9-4.6,1.1-6.9-1.5-3.9-2.2-7.9-2.2-12.1,0-19.4,15.8-35.2,35.1-35.2s29.9,10.6,33.9,25.8c.6,2.2,2.1,3.9,4.2,4.8,2.1.9,4.4.7,6.3-.4,3.6-2.1,7.8-3.2,12.1-3.2,13.5,0,24.5,10.6,24.9,24.1,0,3.1,2.1,5.7,5.1,6.6,10.5,3.2,17.8,13,17.8,24s-11.2,24.9-24.9,24.9h0Z"/>
    </g>
    <g id="Layer_7">
      <path class="cls-2" d="M100,200c-1.1,0-2.2-.3-3.1-.9L15.5,152.1c-1.7-1-2.8-2.9-2.8-4.9V52.8c0-2.2,1.2-4.2,3.2-5.1L97.2.8c.9-.5,1.8-.8,2.8-.8s2,.3,2.9.8l1.3.8,80.2,46.3c.9.4,1.7,1.2,2.3,2.2.6,1,.8,2.1.7,3.2v94c0,2.2-1.2,4.2-3.2,5.1l-81.1,46.8c-.9.6-1.9.9-3.1.9ZM105.6,184.6l70.4-40.7V62.6l-70.4,40.7v81.3ZM94.4,184.6v-81.3L23.9,62.6v81.3l70.4,40.7ZM100,93.5l70.4-40.7-32.4-18.7-38-22L29.6,52.8l70.4,40.7Z"/>
    </g>
    <g id="Layer_4" class="cls-5">
      <path class="cls-2" d="M136.4,199.7c-4.5,0-8.2-3.7-8.2-8.2v-3c-1.2-.4-2.4-.9-3.5-1.4l-2.1,2.1c-1.5,1.5-3.6,2.4-5.8,2.4s-4.2-.8-5.7-2.3l-6-6H26.3c-8.1,0-14.7-6.6-14.7-14.7V30.6c0-1.2.5-2.3,1.3-3.1L39.4,1c.8-.8,1.9-1.3,3.1-1.3h88.3c8.1,0,14.7,6.6,14.7,14.7v91.1h.3c4.5,0,8.2,3.7,8.2,8.1v3c1.2.4,2.4.9,3.5,1.5l2.1-2.1c1.5-1.5,3.6-2.4,5.8-2.4s4.2.8,5.8,2.4l6.7,6.7c3.2,3.2,3.2,8.3,0,11.5l-2.1,2.1c.5,1.1,1,2.3,1.5,3.5h2.9c4.5,0,8.2,3.7,8.2,8.2v9.4c0,4.5-3.7,8.2-8.2,8.2h-2.9c-.4,1.2-.9,2.4-1.5,3.5l2.1,2.1c3.2,3.2,3.2,8.3,0,11.5l-6.7,6.7c-1.6,1.5-3.6,2.4-5.8,2.4s-4.2-.8-5.7-2.3l-2.1-2.1c-1.1.5-2.3,1-3.5,1.4v3c0,4.5-3.7,8.2-8.2,8.2h-9.4ZM145.2,191v-5.6c0-2,1.3-3.7,3.3-4.2,2.6-.7,5.2-1.7,7.6-3.1.7-.4,1.4-.6,2.2-.6,1.2,0,2.3.5,3.1,1.3l4,4,5.8-5.9-4-4c-1.4-1.4-1.7-3.6-.7-5.3,1.4-2.4,2.4-4.9,3.1-7.6.5-1.9,2.2-3.3,4.2-3.3h5.6v-8.3h-5.6c-2,0-3.7-1.3-4.2-3.3-.7-2.6-1.7-5.2-3.1-7.6-1-1.7-.7-3.9.7-5.3l4-3.9-5.8-5.9-4,4c-.8.8-1.9,1.3-3.1,1.3-.8,0-1.6-.2-2.2-.6-2.4-1.4-4.9-2.5-7.5-3.1-1.9-.5-3.3-2.2-3.3-4.2v-5.6h-3.8c-.1,0-.2,0-.3,0h-4.1v5.6c0,2-1.3,3.7-3.3,4.2-2.7.7-5.2,1.7-7.6,3.1-.7.4-1.4.6-2.2.6-1.2,0-2.3-.5-3.1-1.3l-4-4-2.9,2.9-2.9,2.9,4,3.9c1.4,1.4,1.7,3.6.7,5.3-.4.6-.7,1.2-1,1.9-.8,1.5-1.4,3.2-1.9,4.8,0,.3-.2.6-.2.9,0,.1,0,.2-.1.3-.6,1.8-2.3,3-4.1,3h-5.6v8.3h5.6c1.2,0,2.4.5,3.2,1.4.5.5.9,1.2,1,1.9.7,2.6,1.7,5.2,3.1,7.6,1,1.7.7,3.9-.7,5.3l-4,4,5.9,5.9,4-4c.8-.8,1.9-1.3,3.1-1.3s1.5.2,2.2.6c2.4,1.4,4.9,2.4,7.6,3.1,1.9.5,3.3,2.2,3.3,4.2v5.6h8.3ZM20.4,168.6c0,3.3,2.7,5.9,5.9,5.9h76.1c.4-1.3,1-2.5,2-3.4l2.1-2.1c-.5-1.1-1-2.3-1.4-3.5h-2.9c-4.5,0-8.2-3.7-8.2-8.2v-9.4c0-4.5,3.7-8.2,8.2-8.2h2.9c.4-1.2.9-2.4,1.4-3.5l-2.1-2.1c-.5-.5-.9-1-1.2-1.5-1.7-2.7-1.6-6.2.2-8.8.3-.4.6-.8.9-1.2l2.9-2.9,3.8-3.8c.5-.5,1-.9,1.5-1.2,1.3-.8,2.7-1.2,4.2-1.2,2.2,0,4.2.8,5.8,2.4l2.1,2.1c1.1-.5,2.3-1,3.5-1.5v-3c0-4.5,3.7-8.1,8.2-8.1h.3V14.4c0-3.3-2.7-5.9-5.9-5.9H46.9v11.9c0,8.1-6.6,14.7-14.7,14.7h-11.9v133.6ZM32.2,26.2c3.3,0,5.9-2.7,5.9-5.9v-5.7l-11.6,11.6h5.7ZM141.1,171.5c-10.4,0-18.9-8.5-18.9-18.9s8.5-18.9,18.9-18.9,18.9,8.5,18.9,18.9-8.5,18.9-18.9,18.9ZM141.1,142.4c-5.6,0-10.2,4.6-10.2,10.2s4.6,10.2,10.2,10.2,10.2-4.6,10.2-10.2-4.6-10.2-10.2-10.2ZM35.9,123.2c-2.3,0-4.1-1.8-4.1-4.1s1.8-4.1,4.1-4.1h39.2c2.3,0,4.1,1.8,4.1,4.1s-1.8,4.1-4.1,4.1h-39.2ZM35.9,107.3c-2.3,0-4.1-1.8-4.1-4.1s1.8-4.1,4.1-4.1h39.2c2.3,0,4.1,1.8,4.1,4.1s-1.8,4.1-4.1,4.1h-39.2ZM35.9,91.3c-2.3,0-4.1-1.8-4.1-4.1s1.8-4.1,4.1-4.1h85.4c2.3,0,4.1,1.8,4.1,4.1s-1.8,4.1-4.1,4.1H35.9ZM35.9,75.4c-2.3,0-4.1-1.8-4.1-4.1s1.8-4.1,4.1-4.1h85.4c2.3,0,4.1,1.8,4.1,4.1s-1.8,4.1-4.1,4.1H35.9ZM35.9,59.4c-2.3,0-4.1-1.8-4.1-4.1s1.8-4.1,4.1-4.1h85.4c2.3,0,4.1,1.8,4.1,4.1s-1.8,4.1-4.1,4.1H35.9Z"/>
    </g>
  </g>
</svg>