<?xml version="1.0" encoding="UTF-8"?>
<svg xmlns="http://www.w3.org/2000/svg" version="1.1" viewBox="0 0 200 200">
  <defs>
    <style>
      .cls-1 {
        fill: #fff;
      }
    </style>
  </defs>
  <!-- Generator: Adobe Illustrator 28.6.0, SVG Export Plug-In . SVG Version: 1.2.0 Build 709)  -->
  <g>
    <g id="Layer_1">
      <g>
        <g>
          <path class="cls-1" d="M54.7,121.3h-8.3v12.4h8.3c3.4,0,6-3,6-6.1,0-3.5-2.7-6.4-6-6.4Z"/>
          <path class="cls-1" d="M88.3,121.5h-8.3v22.4h8.3c13.5,0,14.1-22.4,0-22.4Z"/>
          <path class="cls-1" d="M156.3,93.8H18.7c-3.4,0-6.2,2.8-6.2,6.3v62.5c0,3.4,2.8,6.2,6.2,6.2h137.5c3.4,0,6.2-2.8,6.2-6.2v-62.5c0-3.4-2.8-6.3-6.2-6.3ZM54.7,140h-8.3v6.6c0,2.2-1.4,3.4-3.2,3.4s-3.4-1.2-3.4-3.5v-28.1c0-1.6,1.3-3.5,3.4-3.5h11.5c6.5,0,12.3,4.3,12.3,12.7,0,7.9-5.8,12.3-12.3,12.3ZM88.7,150h-11.9c-1.6,0-3.5-.9-3.5-3.1v-28.4c0-1.8,1.8-3.1,3.5-3.1h11.4c22.8,0,22.3,34.6.4,34.6ZM133.2,121.9h-14.5v7.9h12.7c1.8,0,3.6,1.8,3.6,3.6s-1.8,3-3.6,3h-12.7v10.5c0,1.8-1.2,3.1-3,3.1s-3.5-1.3-3.5-3.1v-28.4c0-1.8,1.4-3.1,3.5-3.1h17.5c2.2,0,3.5,1.3,3.5,3.1s-1.3,3.4-3.5,3.4Z"/>
        </g>
        <path class="cls-1" d="M181.3,47.4L140.1,6.3c-3.6-3.6-10-6.3-15.1-6.3H56.2c-10.3,0-18.8,8.4-18.8,18.8v62.5c0,3.5,2.8,6.2,6.2,6.2s6.2-2.8,6.2-6.2V18.8c0-3.4,2.8-6.2,6.3-6.2h56.2c6.9,0,12.5,5.6,12.5,12.5v23.4c0,7.7,6.3,14.1,14.1,14.1h23.4c6.9,0,12.5,5.6,12.5,12.5v106.2c0,3.4-2.8,6.2-6.2,6.2H56.2c-3.5,0-6.3-2.8-6.3-6.2s-2.8-6.2-6.2-6.2-6.2,2.8-6.2,6.2c0,10.3,8.4,18.8,18.8,18.8h112.5c10.3,0,18.8-8.4,18.8-18.8V62.5c0-5.1-2.6-11.5-6.2-15.1Z"/>
      </g>
    </g>
  </g>
</svg>