<?xml version="1.0" encoding="UTF-8"?>
<svg xmlns="http://www.w3.org/2000/svg" version="1.1" viewBox="0 0 200 200">
  <defs>
    <style>
      .cls-1 {
        fill-rule: evenodd;
      }

      .cls-1, .cls-2 {
        fill: #fff;
      }

      .cls-3 {
        fill: #43c6eb;
      }

      .cls-4 {
        display: none;
      }
    </style>
  </defs>
  <!-- Generator: Adobe Illustrator 28.6.0, SVG Export Plug-In . SVG Version: 1.2.0 Build 709)  -->
  <g>
    <g id="Layer_1" class="cls-4">
      <g>
        <g>
          <path class="cls-3" d="M54.7,121.3h-8.3v12.4h8.3c3.4,0,6-3,6-6.1,0-3.5-2.7-6.4-6-6.4Z"/>
          <path class="cls-3" d="M88.3,121.5h-8.3v22.4h8.3c13.5,0,14.1-22.4,0-22.4Z"/>
          <path class="cls-3" d="M156.3,93.8H18.7c-3.4,0-6.2,2.8-6.2,6.3v62.5c0,3.4,2.8,6.2,6.2,6.2h137.5c3.4,0,6.2-2.8,6.2-6.2v-62.5c0-3.4-2.8-6.3-6.2-6.3ZM54.7,140h-8.3v6.6c0,2.2-1.4,3.4-3.2,3.4s-3.4-1.2-3.4-3.5v-28.1c0-1.6,1.3-3.5,3.4-3.5h11.5c6.5,0,12.3,4.3,12.3,12.7,0,7.9-5.8,12.3-12.3,12.3ZM88.7,150h-11.9c-1.6,0-3.5-.9-3.5-3.1v-28.4c0-1.8,1.8-3.1,3.5-3.1h11.4c22.8,0,22.3,34.6.4,34.6ZM133.2,121.9h-14.5v7.9h12.7c1.8,0,3.6,1.8,3.6,3.6s-1.8,3-3.6,3h-12.7v10.5c0,1.8-1.2,3.1-3,3.1s-3.5-1.3-3.5-3.1v-28.4c0-1.8,1.4-3.1,3.5-3.1h17.5c2.2,0,3.5,1.3,3.5,3.1s-1.3,3.4-3.5,3.4Z"/>
        </g>
        <path class="cls-3" d="M181.3,47.4L140.1,6.3c-3.6-3.6-10-6.3-15.1-6.3H56.2c-10.3,0-18.8,8.4-18.8,18.8v62.5c0,3.5,2.8,6.2,6.2,6.2s6.2-2.8,6.2-6.2V18.8c0-3.4,2.8-6.2,6.3-6.2h56.2c6.9,0,12.5,5.6,12.5,12.5v23.4c0,7.7,6.3,14.1,14.1,14.1h23.4c6.9,0,12.5,5.6,12.5,12.5v106.2c0,3.4-2.8,6.2-6.2,6.2H56.2c-3.5,0-6.3-2.8-6.3-6.2s-2.8-6.2-6.2-6.2-6.2,2.8-6.2,6.2c0,10.3,8.4,18.8,18.8,18.8h112.5c10.3,0,18.8-8.4,18.8-18.8V62.5c0-5.1-2.6-11.5-6.2-15.1Z"/>
      </g>
    </g>
    <g id="Layer_2" class="cls-4">
      <path class="cls-1" d="M122.4,200c-2.8,0-5.5-.7-7.9-2.1-5.2-3-8.2-8.6-7.9-14.6.5-8.5,1.1-17.6,1.3-21.7.1-2.4.9-4.8,2.1-7l37.7-65.4c2.8-4.9,8.1-7.9,13.7-7.9s5.5.7,7.9,2.1l16.8,9.7c3.7,2.1,6.3,5.5,7.4,9.6,1.1,4.1.5,8.3-1.6,12l-37.7,65.4c-1.2,2.1-2.9,3.9-5,5.3l-5.7,3.8c-3.6,2.4-8.1,5.3-12.4,8.2-2.6,1.7-5.6,2.6-8.7,2.6h0ZM120.1,161.4l-1.8,29.8,24.9-16.4,40-69.2-23.1-13.3-40,69.2ZM31.5,187.2c-14.1,0-25.5-11.5-25.5-25.5V25.5c0-6.8,2.7-13.2,7.5-18C18.2,2.7,24.7,0,31.5,0h116.6c14.1,0,25.5,11.5,25.5,25.5v29c0,3.4-2.7,6.1-6.1,6.1s-6.1-2.7-6.1-6.1v-29c0-7.4-6-13.3-13.3-13.3H31.5c-3.5,0-7,1.4-9.4,3.9-2.5,2.5-3.9,5.9-3.9,9.4v136.1c0,7.4,6,13.3,13.3,13.3h48c3.4,0,6.1,2.7,6.1,6.1s-2.7,6.1-6.1,6.1H31.5ZM50.9,148.3c-3.4,0-6.1-2.7-6.1-6.1s2.7-6.1,6.1-6.1h29.2c3.4,0,6.1,2.7,6.1,6.1s-2.7,6.1-6.1,6.1h-29.2ZM50.9,119.1c-3.4,0-6.1-2.7-6.1-6.1s2.7-6.1,6.1-6.1h48.6c3.4,0,6.1,2.7,6.1,6.1s-2.7,6.1-6.1,6.1h-48.6ZM50.9,89.9c-3.4,0-6.1-2.7-6.1-6.1v-38.9c0-3.4,2.7-6.1,6.1-6.1h38.9c3.4,0,6.1,2.7,6.1,6.1v38.9c0,3.4-2.7,6.1-6.1,6.1h-38.9ZM57,77.8h26.7v-26.7h-26.7v26.7ZM119,80.2c-3.4,0-6.1-2.7-6.1-6.1s2.7-6.1,6.1-6.1h9.7c3.4,0,6.1,2.7,6.1,6.1s-2.7,6.1-6.1,6.1h-9.7ZM119,51.1c-3.4,0-6.1-2.7-6.1-6.1s2.7-6.1,6.1-6.1h9.7c3.4,0,6.1,2.7,6.1,6.1s-2.7,6.1-6.1,6.1h-9.7Z"/>
    </g>
    <g id="Layer_3" class="cls-4">
      <path class="cls-2" d="M100,0C44.8,0,0,44.8,0,100s44.8,100,100,100,100-44.8,100-100S155.2,0,100,0ZM185.7,92.9h-28.6c-.5-14.1-3.3-28.1-8.2-41.4,5-2.8,9.8-6,14.3-9.6,13,14,20.9,31.9,22.5,50.9ZM107.1,185.7h0v-35c7.8.6,15.6,2.3,22.9,5.1-5.8,11.2-13.6,21.4-22.9,29.9ZM142.9,162c3.2,1.8,6.3,3.9,9.3,6.1-6.2,4.8-13.1,8.7-20.4,11.7,4.2-5.7,7.9-11.8,11.1-18.2v.4ZM69.8,155.9c7.4-2.9,15.2-4.8,23.1-5.5v35.4h0c-9.4-8.6-17.2-18.8-22.9-30.2v.4ZM67.9,179.9c-7.3-3-14.1-6.9-20.4-11.7,3-2.2,6.1-4.3,9.3-6.1,3.2,6.1,7,12,11.2,17.5v.4ZM92.9,14.6h0v35.4c-7.8-.6-15.6-2.3-22.9-5.1,5.8-11.4,13.5-21.6,22.9-30.2ZM57.1,38.4c-3.2-1.8-6.3-3.9-9.3-6.1,6.2-4.8,13.1-8.7,20.4-11.7-4.2,5.6-7.9,11.6-11.1,17.9ZM130.2,44.5c-7.4,2.9-15.2,4.8-23.1,5.5V14.6h0c9.4,8.5,17.1,18.6,22.9,29.9h.1ZM132.1,20.5c7.3,3,14.1,6.9,20.4,11.7-3,2.2-6.1,4.3-9.3,6.1-3.2-6.3-7-12.2-11.2-17.9h.1ZM92.9,64.3v28.6h-35.7c.7-12,3.1-23.9,7.1-35.2,9.1,3.6,18.8,5.8,28.6,6.6ZM92.9,107.1v28.9c-9.8.7-19.4,2.8-28.6,6.3-4.1-11.3-6.5-23.2-7.1-35.2h35.7ZM107.1,136.1v-28.9h35.7c-.7,12-3.1,23.9-7.1,35.2-9.2-3.5-18.8-5.6-28.6-6.3ZM107.1,92.9v-28.6c9.8-.7,19.4-2.8,28.6-6.3,4,11.2,6.4,23,7.1,34.9h-35.7ZM37.1,41.9c4.5,3.6,9.2,6.8,14.3,9.6-5,13.2-7.9,27.2-8.6,41.4H14.3c1.7-19.1,9.7-37,22.9-50.9ZM14.6,107.1h28.2c.5,14.1,3.3,28.1,8.2,41.4-5,2.8-9.8,6-14.3,9.6-12.9-14-20.7-32-22.1-50.9ZM162.9,158.1c-4.5-3.6-9.2-6.8-14.3-9.6,5-13.2,7.9-27.2,8.6-41.4h28.6c-1.7,19.1-9.7,37-22.9,50.9Z"/>
    </g>
    <g id="Layer_4">
      <path class="cls-2" d="M136.5,200c-4.5,0-8.2-3.7-8.2-8.2v-3c-1.2-.4-2.4-.9-3.5-1.4l-2.1,2.1c-1.5,1.5-3.6,2.4-5.8,2.4s-4.2-.8-5.7-2.3l-6-6H26.4c-8.1,0-14.7-6.6-14.7-14.7V30.9c0-1.2.5-2.3,1.3-3.1L39.5,1.3c.8-.8,1.9-1.3,3.1-1.3h88.3c8.1,0,14.7,6.6,14.7,14.7v91.1h.3c4.5,0,8.2,3.7,8.2,8.1v3c1.2.4,2.4.9,3.5,1.5l2.1-2.1c1.5-1.5,3.6-2.4,5.8-2.4s4.2.8,5.8,2.4l6.7,6.7c3.2,3.2,3.2,8.3,0,11.5l-2.1,2.1c.5,1.1,1,2.3,1.5,3.5h2.9c4.5,0,8.2,3.7,8.2,8.2v9.4c0,4.5-3.7,8.2-8.2,8.2h-2.9c-.4,1.2-.9,2.4-1.5,3.5l2.1,2.1c3.2,3.2,3.2,8.3,0,11.5l-6.7,6.7c-1.6,1.5-3.6,2.4-5.8,2.4s-4.2-.8-5.7-2.3l-2.1-2.1c-1.1.5-2.3,1-3.5,1.4v3c0,4.5-3.7,8.2-8.2,8.2h-9.4ZM145.3,191.3v-5.6c0-2,1.3-3.7,3.3-4.2,2.6-.7,5.2-1.7,7.6-3.1.7-.4,1.4-.6,2.2-.6,1.2,0,2.3.5,3.1,1.3l4,4,5.8-5.9-4-4c-1.4-1.4-1.7-3.6-.7-5.3,1.4-2.4,2.4-4.9,3.1-7.6.5-1.9,2.2-3.3,4.2-3.3h5.6v-8.3h-5.6c-2,0-3.7-1.3-4.2-3.3-.7-2.6-1.7-5.2-3.1-7.6-1-1.7-.7-3.9.7-5.3l4-3.9-5.8-5.9-4,4c-.8.8-1.9,1.3-3.1,1.3-.8,0-1.6-.2-2.2-.6-2.4-1.4-4.9-2.5-7.5-3.1-1.9-.5-3.3-2.2-3.3-4.2v-5.6h-3.8c-.1,0-.2,0-.3,0h-4.1v5.6c0,2-1.3,3.7-3.3,4.2-2.7.7-5.2,1.7-7.6,3.1-.7.4-1.4.6-2.2.6-1.2,0-2.3-.5-3.1-1.3l-4-4-2.9,2.9-2.9,2.9,4,3.9c1.4,1.4,1.7,3.6.7,5.3-.4.6-.7,1.2-1,1.9-.8,1.5-1.4,3.2-1.9,4.8,0,.3-.2.6-.2.9,0,.1,0,.2-.1.3-.6,1.8-2.3,3-4.1,3h-5.6v8.3h5.6c1.2,0,2.4.5,3.2,1.4.5.5.9,1.2,1,1.9.7,2.6,1.7,5.2,3.1,7.6,1,1.7.7,3.9-.7,5.3l-4,4,5.9,5.9,4-4c.8-.8,1.9-1.3,3.1-1.3s1.5.2,2.2.6c2.4,1.4,4.9,2.4,7.6,3.1,1.9.5,3.3,2.2,3.3,4.2v5.6h8.3ZM20.4,168.9c0,3.3,2.7,5.9,5.9,5.9h76.1c.4-1.3,1-2.5,2-3.4l2.1-2.1c-.5-1.1-1-2.3-1.4-3.5h-2.9c-4.5,0-8.2-3.7-8.2-8.2v-9.4c0-4.5,3.7-8.2,8.2-8.2h2.9c.4-1.2.9-2.4,1.4-3.5l-2.1-2.1c-.5-.5-.9-1-1.2-1.5-1.7-2.7-1.6-6.2.2-8.8.3-.4.6-.8.9-1.2l2.9-2.9,3.8-3.8c.5-.5,1-.9,1.5-1.2,1.3-.8,2.7-1.2,4.2-1.2,2.2,0,4.2.8,5.8,2.4l2.1,2.1c1.1-.5,2.3-1,3.5-1.5v-3c0-4.5,3.7-8.1,8.2-8.1h.3V14.7c0-3.3-2.7-5.9-5.9-5.9H47v11.9c0,8.1-6.6,14.7-14.7,14.7h-11.9v133.6ZM32.3,26.5c3.3,0,5.9-2.7,5.9-5.9v-5.7l-11.6,11.6h5.7ZM141.2,171.8c-10.4,0-18.9-8.5-18.9-18.9s8.5-18.9,18.9-18.9,18.9,8.5,18.9,18.9-8.5,18.9-18.9,18.9ZM141.2,142.7c-5.6,0-10.2,4.6-10.2,10.2s4.6,10.2,10.2,10.2,10.2-4.6,10.2-10.2-4.6-10.2-10.2-10.2ZM35.9,123.5c-2.3,0-4.1-1.8-4.1-4.1s1.8-4.1,4.1-4.1h39.2c2.3,0,4.1,1.8,4.1,4.1s-1.8,4.1-4.1,4.1h-39.2ZM35.9,107.6c-2.3,0-4.1-1.8-4.1-4.1s1.8-4.1,4.1-4.1h39.2c2.3,0,4.1,1.8,4.1,4.1s-1.8,4.1-4.1,4.1h-39.2ZM35.9,91.6c-2.3,0-4.1-1.8-4.1-4.1s1.8-4.1,4.1-4.1h85.4c2.3,0,4.1,1.8,4.1,4.1s-1.8,4.1-4.1,4.1H35.9ZM35.9,75.6c-2.3,0-4.1-1.8-4.1-4.1s1.8-4.1,4.1-4.1h85.4c2.3,0,4.1,1.8,4.1,4.1s-1.8,4.1-4.1,4.1H35.9ZM35.9,59.7c-2.3,0-4.1-1.8-4.1-4.1s1.8-4.1,4.1-4.1h85.4c2.3,0,4.1,1.8,4.1,4.1s-1.8,4.1-4.1,4.1H35.9Z"/>
    </g>
  </g>
</svg>