<?xml version="1.0" encoding="UTF-8"?>
<svg id="Layer_1" data-name="Layer 1" xmlns="http://www.w3.org/2000/svg" version="1.1" viewBox="0 0 48 48">
  <defs>
    <style>
      .cls-1 {
        fill: #0bd;
      }

      .cls-1, .cls-2, .cls-3 {
        stroke-width: 0px;
      }

      .cls-2 {
        fill: #e78067;
      }

      .cls-3 {
        fill: #00ab8e;
      }

      .cls-4 {
        display: none;
      }
    </style>
  </defs>
  <g class="cls-4">
    <path class="cls-3" d="M16.3,4c-6.8,0-12.4,5.6-12.4,12.4s5.6,12.4,12.4,12.4,12.4-5.6,12.4-12.4c0-6.8-5.6-12.3-12.4-12.4ZM16.3,27.2c-5.9,0-10.8-4.9-10.8-10.8s4.9-10.8,10.8-10.8,10.8,4.9,10.8,10.8c0,5.9-4.9,10.8-10.8,10.8Z"/>
    <path class="cls-3" d="M13.8,22.8c-2.2-.9-3.8-2.8-4.3-5.1,0-.4-.4-.6-.8-.6s-.8.3-.8.8,0,0,0,.1c.6,2.8,2.6,5.2,5.2,6.2,0,0,.2,0,.3,0h0c.4,0,.8-.3.8-.8s-.2-.6-.5-.7Z"/>
    <path class="cls-3" d="M47.8,43.4l-11.8-11.8h0s0,0,0,0l-1.6-1.6c-1-1-2.5-1.2-3.7-.5l-2.3-2.3c2.7-3,4.2-6.9,4.2-11C32.6,7.3,25.2,0,16.3,0S0,7.3,0,16.3s7.3,16.3,16.3,16.3,8-1.5,11-4.2l2.3,2.3c-.7,1.2-.5,2.8.5,3.7l1.6,1.6h0s0,0,0,0l11.8,11.8c.1.1.3.2.5.2s.4,0,.5-.2l3.3-3.3c.1-.1.2-.3.2-.5s0-.4-.2-.5ZM1.7,16.3C1.7,8.3,8.3,1.7,16.3,1.7s14.7,6.6,14.7,14.7-6.6,14.7-14.7,14.7c-8,0-14.7-6.6-14.7-14.7ZM30.6,32.2c0-.4.2-.8.4-1.1,0,0,0,0,0,0s0,0,0,0c.6-.6,1.6-.6,2.2,0l1.1,1.1-2.2,2.2-1.1-1.1c-.3-.3-.5-.7-.5-1.1ZM44,46.1l-10.7-10.7,2.2-2.2,10.7,10.7-2.2,2.2Z"/>
  </g>
  <g class="cls-4">
    <path class="cls-1" d="M10.8,5.7c.5-.3.9-.5,1.4-.8.3-.1.5-.2.7-.4,0,0,.5-.2.3-.2-.2.1.1,0,.1,0,.1,0,.2-.1.4-.2.7-.3,1.4-.5,2.1-.7,4-1.2,8.2-1.6,12.4-1,3.2.5,6.4,1.6,9.3,3,.6.3,1.3.2,1.6-.4.3-.5.2-1.3-.4-1.6C33.6,1.1,27.9-.3,22.2,0c-3.7.3-7.3,1.1-10.6,2.6-.7.3-1.3.6-1.9,1-.5.4-.8,1-.4,1.6.3.5,1,.8,1.5.4h0Z"/>
    <path class="cls-1" d="M8.2,39c-.6-1.4-.9-2.8-1.1-4.2,0-.3-.1-.7-.2-1,0,0,0-.4,0,0,0-.1,0-.2,0-.3,0-.2,0-.4,0-.6-.1-.8-.1-1.5-.1-2.3s0-1.7.2-2.5c0-.1,0-.2,0-.3,0,.3,0,0,0-.1,0-.2,0-.4.1-.6.1-.5.2-.9.3-1.3.5-1.8,1.1-3.3,2.2-4.8.5-.7,1.1-1.4,1.8-2.1.8-.8,1.6-1.4,2.6-2,2.4-1.5,5.1-2.6,7.9-2.8,3.1-.3,6.2.2,9,1.3,2.3.9,4.3,2.2,6,3.9.9.9,1.6,2,2.3,3.1.4.6.7,1.3,1,1.9.2.4.4.7.5,1.1-.1-.2,0,0,0,0,.2.4.3.7.4,1.1.1.3.2.6.2.9,0,.2,0,.4.1.6,0,.1,0,.2,0,.3,0-.3,0,.2,0,.2,0,.4,0,.8,0,1.3v1.2q0-.1,0,0c-.2,1-.4,1.6-1,2.4.1-.2-.1.2-.1.2l-.3.3c-.2.2-.3.3-.4.4-.5.4-1.1.7-1.7.8-1.3.4-2.8.3-4.1-.4-1-.5-1.7-1.2-2.2-2.2-.1-.2-.2-.3-.3-.6,0-.2-.1-.4-.1-.5,0-.2-.2-.6,0-.2-.1-.3,0-.6,0-.9,0-.4-.1-.8-.2-1.3-1.1-5.6-9-7.3-12.6-3.1-2.7,3.1-2,7.7-.5,11.3,1.7,4.1,4.8,7.3,8.8,9.3,1.3.7,2.6,1.2,4,1.6,1.4.5,2-1.8.6-2.2-2.4-.8-4.9-2-6.8-3.6-1.6-1.3-2.7-2.7-3.7-4.5l-.6-1.2c-.1-.2,0,.1,0-.1s-.1-.2-.1-.3c-.1-.2-.2-.4-.2-.6-.3-.7-.5-1.5-.6-2.2,0-.4-.1-.7-.2-1,0-.1,0-.2,0-.2,0-.3,0,.1,0,0,0-.2,0-.3,0-.5-.2-1.3,0-2.5.7-3.6,1.4-2.3,4.2-2.7,6.5-1.8.9.4,1.7,1,2.2,1.8.6,1,.6,2,.7,3.2,0,.3,0,.1,0,0,0,.2,0,.3,0,.4,0,.2,0,.4.1.5.1.4.3.8.4,1.1.2.4.4.8.7,1.1,1,1.3,2.3,2.2,3.8,2.6,2.7.8,6.1.1,7.9-2.1,2.3-2.7,2-6.7,1-10-.7-2.1-1.9-4.1-3.3-5.9-1.5-2-3.4-3.6-5.7-4.8-5.8-3-12.7-3.4-18.6-.7-4.1,1.9-7.6,5.1-9.4,9.2-1.4,3.2-1.8,6.8-1.4,10.4.2,2.1.6,4.2,1.3,6.3,0,.1.1.2.1.3.3.6.8,1,1.4.8.3,0,.8-.8.6-1.4h0Z"/>
    <path class="cls-1" d="M4.6,17.9c0-.1.1-.2.2-.3s.2-.2.2-.3c0-.1.3-.3,0,0,0-.1.2-.2.2-.3.7-.8,1.4-1.6,2.2-2.4,1.2-1.1,2.2-1.9,3.5-2.8,1.6-1,3.2-1.9,5-2.5,2-.7,4.1-1.2,6.3-1.3,1,0,1.9,0,2.8,0,.5,0,1,0,1.4,0s.6,0,.8.1c.2,0,.3,0,.5,0,.3,0-.3,0,0,0,.1,0,.2,0,.3,0,1.5.3,3,.6,4.5,1.1,4.3,1.5,8.2,4.6,11,8.4.4.5,1,.8,1.6.4.5-.3.8-1.1.4-1.6-2.7-3.8-6.3-6.9-10.6-8.7-2.9-1.3-6-2-9.1-2.1-3-.2-6.1,0-8.9.9-3.7,1.1-7.2,3-10.1,5.6-1.5,1.3-2.9,2.8-4,4.4-.9,1.3,1.1,2.4,1.9,1.2h0Z"/>
    <path class="cls-1" d="M22.8,30.3c0,2.2.7,4.3,1.8,6.2,1.5,2.7,3.9,4.8,6.9,5.8,2.3.7,4.6.6,7.1.4.6,0,1.2-.5,1.2-1.2s-.5-1.2-1.2-1.2c-2,.2-3.9.4-5.8-.1-.8-.2-1.4-.4-2-.7-.3-.2-.6-.4-.9-.5-.2-.1-.3-.2-.4-.3-.1,0-.2-.1-.2-.2q0,0,0,0c0,0-.1,0-.1-.1-.5-.4-1-.9-1.4-1.4-.1-.1-.2-.3-.3-.4.2.2-.2-.2-.2-.3-.2-.3-.4-.6-.6-.8-.3-.5-.6-1-.8-1.6,0,0,0-.1,0-.2.1.3,0,.1,0,0,0-.2-.1-.3-.2-.4-.1-.3-.2-.5-.3-.8-.2-.5-.3-.9-.4-1.4,0,0,0-.4,0-.2,0,.3,0-.1,0-.2v-.9c0-1.4-2.3-1.4-2.3,0h0Z"/>
    <path class="cls-1" d="M37.5,30.4c.1-2.9-1.1-5.8-2.9-8.1-2.9-3.6-7.9-5.4-12.5-4.7-4.4.6-8.7,3.5-10.6,7.6-1.2,2.7-1.4,5.6-1,8.4.8,5.2,3.4,9.8,7.2,13.4,1.1,1,2.7-.6,1.6-1.6-3.1-3-5.5-6.8-6.4-11.1-.1-.4-.2-.7-.2-1,0,0,0-.2,0-.2,0-.3,0,.3,0,0,0-.2,0-.4,0-.5,0-.5-.1-1-.1-1.4,0-1,.1-2,.3-2.9.4-1.9,1.3-3.6,2.6-4.9.7-.7,1.2-1,1.8-1.5.9-.6,1.8-1.1,2.9-1.5,2.4-.8,5-.7,7.3,0,1.8.6,3.3,1.5,4.5,2.7.7.7,1,1.1,1.5,2,.2.3.4.7.5,1,0,.1.1.2.1.3.1.3,0-.2,0,.1,0,.2.2.4.2.5.2.6.4,1.2.5,1.9,0,.2,0,.3,0,.4,0-.4,0,0,0,.1,0,.4,0,.8,0,1.2.1,1.4,2.4,1.4,2.4-.1h0Z"/>
  </g>
  <path class="cls-2" d="M26.2,24.4c-.5.3-1.1.6-1.6,1,.1.3.2.5.3.8,2.4,5.1,4.9,10.2,7.3,15.3,1.1,2.3.9,2.1,0,3.8-.3.6-.7,1.4-1,2-.3.6-.6.8-1.2.5-1-.3-1.9-.6-2.9-1-1.2-.4-1.4-.7-1.3-2,0-.5.1-1,.2-1.5s0-.8-.5-.9c-.4-.2-1-.3-1.4-.5-.8-.3-.9-.5-.9-1.3,0-.6.4-2.3.4-2.5-.4-.1-.7-.2-1.1-.2-.8-.2-.9-.3-1.7-1.7-.8-1.5-.9-1.8-.1-3.8,0,0-1-.4-1.4-.5-.9-.4-1-.4-1-1.5,0-.3,0-.6,0-.9,0-.3,0-.6,0-1.1-.4.2-.7.3-1,.4-1.1.5-2.1,1-3.2,1.4-1.2.5-1.9.2-2.5-.9-1.4-2.7-2.8-5.3-4.1-8-.6-1.1-.3-1.9.8-2.7.6-.4,1.2-.8,1.8-1.2,0,0,0-.1.1-.2-.1-.1-.2-.3-.4-.4-2.8-1.8-4.4-4.4-5.5-7.5-.5-1.6-.9-3.2-.7-4.9.1-.9.3-1.8.8-2.7.8-1.2,2-1.8,3.5-1.8s2.6.4,3.7,1.2c1,.8,1.8,1.4,3.3,3.2.3-.2.6-.4.9-.6,1.9-1.2,4-2,6.3-1.8,4,.4,7,3.2,7.8,7.1.4,2.2.2,4.3-.5,6.4-.1.3-.3.6-.5,1,.3.2,9.4,7.7,13.6,11.2,1.7,1.5,1.6,1.7,1.5,3.7,0,.6,0,1.4,0,2.1,0,.4-.3.6-.6.8-1.7.3-3.4.6-5,.9-.5.1-.8-.2-.9-.7-.1-.3-.3-1.9-.4-2.4-.6.1-1,.2-1.6.3-1.1.2-1.2-.2-1.4-1.2,0-.3-.2-1.6-.3-1.9-.5,0-1,.1-1.7.2-1.4.2-1.7,0-1.8-1.8,0-.4,0-.6,0-.9-1.2.2-1.3,0-2.7-1.1-.7-.4-1.1-.8-1.5-1.2ZM30.1,46.2c.4-.6.7-1.4,1-1.9.4-.8.4-1.1,0-1.8-1.9-4.1-3.8-8.2-5.8-12.2-.7-1.5-1.4-2.9-2.1-4.3-.5-1-.3-1.4.7-1.9,1.2-.6,2.4-1.4,3.5-2.1.9-.6,1-.9.5-1.8-1.1-2.2-2.3-4.3-3.5-6.4-.1-.2-.2-.3-.3-.4-.6-.7-1-.8-1.8-.4-.5.2-1.1.5-1.7.7-.7.3-1.4.3-1.9-.3-.3-.3-.6-.5-1-.8-.5-.4-1-.5-1.6-.2-1.1.5-2.3,1.1-3.4,1.6-.2.1-.6.3-.8.4-.2.1-.2.9-.1.9.6.6,1.1,1,.5,1.3.3.2.8,0,1.2-.2-.5,0-.6-.8,0-1.1.8-.4,1.6-.8,2.4-1.2.4-.2.6-.2.9.2.2.3.2.6,0,.9-.1.1-.5.3-.6.4-.2.3-.2.4-.5.8-1,1-1.9,1.4-3,1.6-.6.1-.8,0-1.1.2-1.1.6-2.2,1.4-3.2,1.9-.4.2-.4.5-.3.9.1.2.2.4.3.6.8,1.5,1.6,3,2.3,4.5.4.7.8,1.4,1.2,2.1.5.8.9,1,1.7.6.6-.2,1.2-.5,1.9-.8.9-.4,1.8-.9,2.8-1.2.7-.3.9-.2.9.5,0,.8,0,1.6,0,2.3s.1.7.5.8c.4.1.8.3,1.1.4.8.3,1,.6.9,1.5,0,.4-.2.8-.3,1.2,0,.3-.3.8,0,1.4.5,1,.5,1.6,1.9,1.8,1.1.2,1.4.4,1.2,1.6-.1.7-.3,1.4-.4,2.1.5.2,1.1.4,1.6.6.7.2,1,.7,1,1.5s0,.8,0,1.2c0,.4-.1.9-.2,1.5,1.1.3,2.1.6,3.2,1ZM12.1,12.7c1-.5,1.9-.9,2.8-1.4s1.7-.9,1.1-1.8c-.8,0-1.1-.8-.8-1.4.3-.6.9-.9,1.4-.8.6.2,1.2,1,.4,1.8.2.3.2.6.2.9,0,0,.1.2.3.2.5.3,1,.7,1.5,1.1.8.6,1.2.8,2.2.3.5-.2.9-.4,1.4-.6,1.3-.4,1.8-.2,2.5.9.6,1,1.1,2,1.7,3,.2.3.4.8.6,1.1.2-.1.5-.6.6-.8,1.1-2.5,1.4-5.1.4-7.7-1.4-3.8-5-4.8-7.8-4.1-4.5,1-7.1,4-8.4,8.2,0,.3,0,.6,0,1ZM38.6,33.6c1.4-.2,2.4-.3,3.6-.5.3,0,.4-.3.5-.6,0-.6.1-1.2.1-1.8,0-.9,0-1.2-.6-1.7-4.1-3.3-8.1-6.7-12.1-10-.5-.4-1.6-1.2-2.2-1.7.2.4.9,1.7,1.1,2.3,1,2.2.4,2.6-1.7,4.1.4.4.9.8,1.3,1.1.4.4.8.5,1.4.3,1-.3,1.2,0,1.4,1,0,.6.1,1.2.2,1.9.7,0,1.3-.1,1.9-.2,1.3-.1,1.6.2,1.7,1.4,0,.3.1,1.5.2,1.8.6-.1,1.2-.3,1.8-.4.7-.2,1,0,1.1.7.1.4.2.8.2,1.1.1.4.2.8.2,1.2ZM10.4,14.2c.1-1.3.2-2.2.4-3.2.3-1,.6-1.9,1-2.9.4-.9,1-1.7,1.6-2.5-1.3-1.6-2.8-3.2-4.7-3.9-2.2-.9-4,.4-3.6,3.2.4,2.8,1.5,6.1,4.1,8.3.4.2.7.5,1.2.9ZM9.9,15.4c-3.9-3.3-4.6-5.8-5.3-9.1,0,2.1,1.2,6.2,5.3,9.1ZM14.1,4.9c0,0,.1-.1.1-.1-.8-1.1-2.9-3-3.7-3.2,1.1.8,2.3,1.8,3.6,3.4Z"/>
</svg>