<?xml version="1.0" encoding="UTF-8"?>
<svg id="Layer_1" data-name="Layer 1" xmlns="http://www.w3.org/2000/svg" version="1.1" viewBox="0 0 48 48">
  <defs>
    <style>
      .cls-1 {
        fill: #00ab8e;
        stroke-width: 0px;
      }
    </style>
  </defs>
  <path class="cls-1" d="M16.3,4c-6.8,0-12.4,5.6-12.4,12.4s5.6,12.4,12.4,12.4,12.4-5.6,12.4-12.4c0-6.8-5.6-12.3-12.4-12.4ZM16.3,27.2c-5.9,0-10.8-4.9-10.8-10.8s4.9-10.8,10.8-10.8,10.8,4.9,10.8,10.8c0,5.9-4.9,10.8-10.8,10.8Z"/>
  <path class="cls-1" d="M13.8,22.8c-2.2-.9-3.8-2.8-4.3-5.1,0-.4-.4-.6-.8-.6s-.8.3-.8.8,0,0,0,.1c.6,2.8,2.6,5.2,5.2,6.2,0,0,.2,0,.3,0h0c.4,0,.8-.3.8-.8s-.2-.6-.5-.7Z"/>
  <path class="cls-1" d="M47.8,43.4l-11.8-11.8h0s0,0,0,0l-1.6-1.6c-1-1-2.5-1.2-3.7-.5l-2.3-2.3c2.7-3,4.2-6.9,4.2-11C32.6,7.3,25.2,0,16.3,0S0,7.3,0,16.3s7.3,16.3,16.3,16.3,8-1.5,11-4.2l2.3,2.3c-.7,1.2-.5,2.8.5,3.7l1.6,1.6h0s0,0,0,0l11.8,11.8c.1.1.3.2.5.2s.4,0,.5-.2l3.3-3.3c.1-.1.2-.3.2-.5s0-.4-.2-.5ZM1.7,16.3C1.7,8.3,8.3,1.7,16.3,1.7s14.7,6.6,14.7,14.7-6.6,14.7-14.7,14.7c-8,0-14.7-6.6-14.7-14.7ZM30.6,32.2c0-.4.2-.8.4-1.1,0,0,0,0,0,0s0,0,0,0c.6-.6,1.6-.6,2.2,0l1.1,1.1-2.2,2.2-1.1-1.1c-.3-.3-.5-.7-.5-1.1ZM44,46.1l-10.7-10.7,2.2-2.2,10.7,10.7-2.2,2.2Z"/>
</svg>