<?xml version="1.0" encoding="UTF-8"?>
<svg xmlns="http://www.w3.org/2000/svg" version="1.1" viewBox="0 0 283.3 283.5">
  <defs>
    <style>
      .cls-1 {
        stroke-miterlimit: 10;
      }

      .cls-1, .cls-2 {
        fill: none;
        stroke: #fff;
        stroke-width: 5px;
      }

      .cls-3 {
        isolation: isolate;
      }

      .cls-2 {
        stroke-linecap: round;
        stroke-linejoin: round;
      }
    </style>
  </defs>
  <!-- Generator: Adobe Illustrator 28.6.0, SVG Export Plug-In . SVG Version: 1.2.0 Build 709)  -->
  <g>
    <g id="Layer_1">
      <g id="Artwork">
        <g>
          <g>
            <g class="cls-3">
              <polyline class="cls-1" points="174.8 209.6 143.8 219 144.1 168.9 144.5 118.7 184.1 106.3 223.8 93.8 223.8 151.9"/>
            </g>
            <g class="cls-3">
              <polyline class="cls-1" points="63.5 94.1 103.6 79.3 143.7 64.4 184.6 78.6 225.4 92.8"/>
            </g>
            <g class="cls-3">
              <polygon class="cls-1" points="144.5 118.7 104.8 106.9 65.1 95.1 64.9 144.8 64.8 194.6 104.3 206.8 143.8 219 144.1 168.9 144.5 118.7"/>
            </g>
          </g>
          <polyline class="cls-1" points="269 181.1 274.3 174.5 267.7 145.6 261.1 116.7 254.5 87.8 247.9 58.9 221.2 46.1 194.5 33.2 167.8 20.4 141.1 7.5 114.4 20.4 87.7 33.2 61 46.1 34.3 58.9 27.8 87.8 21.2 116.7 14.6 145.6 8 174.5 26.4 197.6 44.9 220.8 63.4 244 81.9 267.1 111.5 267.1 141.1 267.1 170.8 267.1 200.4 267.1 213.2 251.1"/>
        </g>
        <path class="cls-2" d="M174.2,201.5c0-27.4,22.2-49.6,49.6-49.6s49.6,22.2,49.6,49.6c0,27.4-22.2,49.6-49.6,49.6-13.2,0-25.8-5.2-35.1-14.5-9.3-9.3-14.5-21.9-14.5-35.1Z"/>
        <g id="encryption">
          <path class="cls-2" d="M237.2,228h-29.7c-3.4,0-6.1-2.8-6.1-6.1v-24.3c0-3.4,2.8-6.1,6.1-6.1h29.7c3.4,0,6.1,2.8,6.1,6.1v24.3c0,3.4-2.7,6.1-6.1,6.1h0Z"/>
          <path class="cls-2" d="M208,191.4v-5c0-7.9,6.4-14.4,14.4-14.4s14.4,6.4,14.4,14.4v5"/>
        </g>
      </g>
    </g>
  </g>
</svg>