<?xml version="1.0" encoding="UTF-8"?>
<svg xmlns="http://www.w3.org/2000/svg" version="1.1" viewBox="0 0 283.3 283.5">
  <defs>
    <style>
      .cls-1 {
        fill: #fff;
        stroke: #fff;
        stroke-miterlimit: 10;
      }
    </style>
  </defs>
  <!-- Generator: Adobe Illustrator 28.6.0, SVG Export Plug-In . SVG Version: 1.2.0 Build 709)  -->
  <g>
    <g id="Layer_1">
      <g id="Artwork">
        <path class="cls-1" d="M188.8,187.2c-.1-.5-.4-1-.7-1.4-.3-.4-.7-.7-1.2-1l-3.3-2-3.3-2,1.9-3.1,1.9-3.1c.3-.5.4-1,.5-1.5,0-.5,0-1.1,0-1.6-.1-.5-.4-1-.7-1.4-.3-.4-.7-.8-1.2-1.1l-2.8-1.7-2.8-1.7,1.9-3.2,1.9-3.2c.3-.5.5-1,.5-1.5.2-1.1-.1-2.1-.8-3-.3-.4-.7-.8-1.2-1.1l-4.2-2.5-4.2-2.5,2.2-3.8,2.3-3.8c.3-.5.5-1,.5-1.5,0-.5,0-1.1,0-1.6l-1-4-1-4c14.1-14.1,14-36.9,0-50.9-8.2-8.1-19.7-11.9-31.1-10.1l-.9-.2-.9-.2c-9.4-1.8-19.1.2-27,5.6-16.5,11.2-20.7,33.5-9.6,50,1.6,2.4,3.5,4.5,5.6,6.4l-5.5,28.6-5.6,28.7c-.1.5-.1,1.1,0,1.6.1.5.3,1,.6,1.4l6,8.9,6,8.9c.6.9,1.5,1.5,2.6,1.7h.4c0,0,.4,0,.4,0,.4,0,.8,0,1.2-.2.4-.1.7-.3,1.1-.5l8.4-5.7,8.4-5.7c.9-.6,1.5-1.5,1.7-2.6.1-.5.1-1.1,0-1.6-.1-.5-.3-1-.6-1.4l-2.1-3.1-2.1-3.2,3-2.1,3-2.1c.4-.3.8-.7,1.1-1.1.3-.4.5-.9.6-1.4.1-.5.1-1.1,0-1.6-.1-.5-.3-1-.6-1.4l-1.8-2.7-1.8-2.7,3.1-2.1,3.1-2.1c1.8-1.2,2.3-3.7,1.1-5.5,0,0,0,0,0,0l-2.7-4-2.7-4,2.3-1.6,2.3-1.6,5.7,22.6,5.7,22.6c.1.5.4,1,.7,1.4.3.4.7.8,1.2,1.1l9.2,5.5,9.2,5.5c.6.4,1.3.6,2.1.6h.5c.2,0,.3,0,.5-.1h0c.5-.1,1-.4,1.4-.7.4-.3.8-.7,1.1-1.2l5.2-8.7,5.2-8.7c.3-.5.5-1,.5-1.5.1-.6.1-1.1,0-1.7ZM129.3,152.1l3.9,5.7,3.9,5.7-4.8,3.2-4.8,3.3,3,4.4,3,4.4-4.7,3.2-4.7,3.2,3.3,4.8,3.3,4.8-7.6,5.1-7.6,5.1-5.6-8.3-5.6-8.3,5.8-29.8,5.7-29.9-.6-.5-.6-.5c-13.1-11-14.9-30.5-3.9-43.7,5.2-6.2,12.6-10.1,20.6-11-6.9,3.8-12.3,9.8-15.4,17-8,18.2.3,39.4,18.5,47.4,1.2.5,2.5,1,3.8,1.4l.8,3.1.8,3.1-5.1,3.5-5.1,3.5ZM174.2,204.2l-8.6-5.1-8.6-5.1-7.4-29.5-7.5-29.5-.7-.2-.7-.2c-16.5-4.4-26.4-21.4-22-37.9s21.4-26.4,37.9-22c16.5,4.4,26.4,21.4,22,37.9-1.5,5.7-4.6,10.8-8.9,14.8l-.6.5-.5.5,1.3,5.2,1.3,5.2-3.4,5.8-3.4,5.8,5.9,3.5,5.9,3.5-3,5-3,5,4.5,2.7,4.5,2.7-2.9,4.9-2.9,4.9,5,3,5,3-4.7,7.8-4.6,7.8Z"/>
        <path class="cls-1" d="M153.5,82.2c-3.3-1.7-7.1-2-10.6-.9-1.7.5-3.4,1.4-4.8,2.6-1.4,1.2-2.6,2.6-3.4,4.2h0c-3.6,6.8-.9,15.2,5.9,18.8,2,1,4.2,1.6,6.4,1.6.7,0,1.4,0,2.1-.2.7-.1,1.4-.3,2.1-.5,7.3-2.3,11.4-10.2,9.1-17.5-1.1-3.5-3.6-6.4-6.8-8.1h0ZM155,98.7c-.5,1-1.3,2-2.2,2.7-3.8,3.2-9.4,2.7-12.6-1.1-2.3-2.8-2.8-6.7-1.1-9.9h0c.5-1,1.3-2,2.2-2.7.9-.8,1.9-1.3,3-1.7,4.7-1.5,9.7,1,11.2,5.7.7,2.3.5,4.8-.6,6.9Z"/>
        <path class="cls-1" d="M31,123.7c-.9,0-1.7-.5-2.1-1.2l-8.4-14.2-8.5-14.2c-.3-.6-.4-1.3-.3-1.9.3-1.3,1.7-2.1,3-1.8.6.2,1.2.6,1.5,1.1l7.8,13.1,7.8,13.1,13.1-7.8,13.1-7.7c.6-.3,1.3-.4,1.9-.3.6.2,1.2.6,1.5,1.2.7,1.2.3,2.7-.9,3.4,0,0,0,0,0,0l-14.2,8.4-14.1,8.4c-.2.1-.4.2-.6.3-.2,0-.4,0-.6,0Z"/>
        <path class="cls-1" d="M34.1,111.2c-.1,0-.3,0-.4,0-.1,0-.3,0-.4,0-1.3-.4-2-1.8-1.6-3.1,0,0,0,0,0,0C51.7,47.3,117,14.3,177.6,34.3c34.8,11.5,62.2,38.8,73.6,73.6.4,1.3-.3,2.7-1.6,3.1-.6.2-1.3.1-1.9-.1-.6-.3-1-.8-1.2-1.4-19.1-58-81.7-89.5-139.7-70.3-33.3,11-59.4,37.1-70.3,70.3-.2.5-.5,1-.9,1.3-.4.3-1,.4-1.5.4Z"/>
        <path class="cls-1" d="M269.3,193.1c-.4,0-.8-.1-1.2-.3-.4-.2-.7-.5-.9-.9l-7.8-13.1-7.8-13.1-13.1,7.8-13.1,7.8c-.6.3-1.2.4-1.9.3-.6-.2-1.2-.6-1.5-1.1-.7-1.2-.3-2.7.9-3.4l14.2-8.4,14.1-8.4c1.2-.7,2.7-.3,3.4.9l8.4,14.1,8.4,14.2c.3.6.4,1.2.3,1.9-.2.6-.6,1.2-1.1,1.5-.2.1-.4.2-.6.3-.2,0-.4,0-.6,0Z"/>
        <path class="cls-1" d="M142,254.9c-49.9,0-94.2-31.9-109.8-79.3-.5-1.3.1-2.7,1.4-3.2,1.3-.5,2.7.1,3.2,1.4,0,0,0,.2,0,.2,19.1,58,81.6,89.5,139.6,70.4,33.3-11,59.4-37.1,70.4-70.4.2-.6.7-1.1,1.2-1.4.6-.3,1.3-.4,1.9-.1,1.3.4,2,1.8,1.6,3.2,0,0,0,0,0,0-15.6,47.4-59.8,79.4-109.7,79.3Z"/>
      </g>
    </g>
  </g>
</svg>