<?xml version="1.0" encoding="UTF-8"?>
<svg xmlns="http://www.w3.org/2000/svg" version="1.1" viewBox="0 0 283.3 283.5">
  <defs>
    <style>
      .cls-1, .cls-2 {
        fill: none;
        stroke: #fff;
        stroke-linecap: round;
        stroke-width: 5px;
      }

      .cls-3 {
        fill: #fff;
      }

      .cls-2 {
        stroke-linejoin: round;
      }
    </style>
  </defs>
  <!-- Generator: Adobe Illustrator 28.6.0, SVG Export Plug-In . SVG Version: 1.2.0 Build 709)  -->
  <g>
    <g id="Layer_1">
      <g id="Artwork">
        <g id="cog2">
          <path class="cls-2" d="M175.4,130.4c2.2,1.2,4.6,2.2,7,3,2.4.8,4.8,1.3,7.3,1.5l1.5,5.5,1.5,5.5c2.6,0,5.2-.1,7.7-.5,2.5-.4,5.1-.9,7.5-1.7v-5.7c0,0,0-5.7,0-5.7,2.3-.9,4.5-2.1,6.6-3.5,2.1-1.4,4.1-3,5.9-4.8l5.3,2.2,5.3,2.2c.8-1,1.6-2,2.3-3s1.4-2.1,2.1-3.3,1.3-2.3,1.8-3.4,1.1-2.3,1.5-3.5l-4.5-3.5-4.5-3.5c1.4-4.9,1.9-10,1.3-15l5-2.7,5-2.7c-1-5-2.9-9.9-5.5-14.4l-5.6,1.3-5.6,1.3c-1.4-2-3-3.9-4.9-5.6-1.8-1.8-3.8-3.3-6-4.7l1-5.6,1-5.6c-2.3-1.2-4.7-2.2-7.2-3-2.4-.7-4.9-1.3-7.4-1.7l-2.4,5.2-2.4,5.2c-5-.3-10.1.4-14.9,2.1l-3.8-4.3-3.8-4.3c-2.3,1.1-4.6,2.3-6.7,3.7-2.1,1.4-4.2,3-6.1,4.8l2.5,5.1,2.6,5.2c-1.7,1.9-3.2,3.9-4.5,6.1-.6,1.1-1.2,2.2-1.8,3.4-.5,1.1-1,2.3-1.4,3.5l-5.7.3-5.7.3c-.6,2.5-1,5.1-1.3,7.7-.2,2.5-.2,5.1,0,7.7l5.6,1.2,5.6,1.2c.8,5,2.6,9.7,5.3,14l-3.4,4.6-3.4,4.7c3.1,4.1,6.9,7.6,11.1,10.6l4.5-3.6,4.4-3.6Z"/>
          <path class="cls-2" d="M184.2,113.9c-9-5.3-12-16.9-6.7-25.9s16.9-12,25.9-6.7c9,5.3,12,16.9,6.7,25.9-2.5,4.3-6.7,7.5-11.6,8.7-4.8,1.3-10,.5-14.3-2Z"/>
          <path class="cls-2" d="M93.5,99.8c2.6,0,5.1-.4,7.6-1,2.4-.6,4.8-1.4,7-2.5l4.2,3.9,4.2,3.9c2.2-1.3,4.3-2.8,6.3-4.4,2-1.6,3.8-3.4,5.6-5.3l-3-4.9-3-4.9c1.5-2,2.8-4.2,3.8-6.4,1.1-2.3,1.9-4.8,2.5-7.2l5.7-.8,5.7-.8c.2-1.3.3-2.5.4-3.8s.1-2.6.1-3.9,0-2.6-.2-3.9-.3-2.5-.5-3.8l-5.7-.7-5.7-.7c-1.3-4.9-3.6-9.5-6.7-13.4l2.9-5,2.9-4.9c-1.8-1.9-3.7-3.6-5.7-5.2-2-1.6-4.2-3-6.4-4.2l-4.1,4-4.1,4c-2.3-1-4.6-1.8-7.1-2.3-2.5-.5-5.1-.8-7.6-.8l-2.1-5.4-2.1-5.3c-2.6.2-5.2.6-7.7,1.2-2.5.6-4.9,1.4-7.2,2.4l.6,5.7.6,5.7c-2.2,1.2-4.3,2.6-6.3,4.2-1.9,1.6-3.7,3.4-5.3,5.3l-5.5-1.6-5.5-1.7c-2.9,4.3-5.1,9-6.5,13.9l4.8,3.1,4.8,3.1c-.2,1.2-.4,2.5-.5,3.7s-.2,2.5-.1,3.8c0,1.3.1,2.5.2,3.8.1,1.2.3,2.5.6,3.7l-4.8,3.2-4.8,3.2c1.5,4.9,3.8,9.6,6.9,13.7l5.4-1.9,5.4-1.9c1.7,1.9,3.5,3.7,5.5,5.2,2,1.5,4.1,2.9,6.4,4l-.5,5.7-.5,5.7c2.4.9,4.8,1.7,7.3,2.2,2.5.5,5.1.9,7.7,1l1.9-5.4,1.9-5.4Z"/>
          <path class="cls-2" d="M92.4,81.2c-10.4.1-19-8.2-19.1-18.6-.1-10.4,8.2-19,18.6-19.1,10.4-.1,19,8.2,19.1,18.6,0,5-1.9,9.8-5.3,13.4-3.5,3.6-8.3,5.6-13.3,5.7Z"/>
          <path class="cls-2" d="M112.1,244.6l1.3-.2c.4,0,.9-.1,1.3-.2,2.4-.4,4.7-.9,7-1.6,2.2-.7,4.4-1.5,6.5-2.5l6.4,4.9,6.4,4.9c1.6-1.1,3.2-2.2,4.8-3.4,1.5-1.2,3-2.4,4.4-3.7l-2.7-7.2-2.7-7.2c2-2.1,3.9-4.4,5.6-6.8,1.7-2.4,3.1-5,4.4-7.6l7.3-.3,7.3-.3c.6-1.9,1.2-3.8,1.6-5.7.5-1.9.9-3.9,1.1-5.9l-6.2-3.5-6.2-3.5c.2-2.2.2-4.3,0-6.5-.1-2.2-.3-4.4-.7-6.6-.2-.9-.3-1.8-.5-2.7s-.4-1.8-.7-2.7l5.3-4.8,5.3-4.8c-.7-1.8-1.4-3.6-2.3-5.4-.8-1.8-1.7-3.5-2.7-5.1l-7,1.3-7,1.3c-1.9-2.6-4-5-6.3-7.2-2.3-2.2-4.8-4.2-7.4-6l1-7.5,1-7.5c-1.6-.9-3.2-1.7-4.8-2.5s-3.3-1.5-5-2.1l-4.9,6-4.9,6c-6.2-1.4-12.6-1.8-18.9-1l-4.5-7.1-4.5-7.1c-1.7.3-3.3.7-5,1.1-1.7.4-3.3.9-4.8,1.5v8.7c0,0,.2,8.7.2,8.7-2.7,1.4-5.3,3.1-7.8,5-2.4,1.8-4.7,3.9-6.8,6.1l-8.9-2.8-8.9-2.8c-1,1.3-1.9,2.6-2.8,3.9s-1.8,2.7-2.6,4.1l6.2,7.3,6.2,7.3c-2.1,5.4-3.4,11.1-3.7,16.9l-9,3.7-9,3.7c0,1.3.2,2.6.3,3.9s.3,2.6.5,3.9c0,.3,0,.6.2.9s.1.6.2.9l9.7,1.6,9.7,1.6c.9,2.7,1.9,5.2,3.2,7.7,1.3,2.4,2.7,4.8,4.3,7l-4.4,8.5-4.4,8.5c1.2,1.2,2.4,2.4,3.7,3.5,1.3,1.1,2.6,2.2,3.9,3.3l8.2-4.8,8.2-4.8c2.3,1.5,4.7,2.7,7.2,3.8,2.5,1.1,5.1,2,7.7,2.7l1.9,8.7,1.9,8.7c1.8.2,3.6.3,5.4.4s3.7,0,5.5,0l2.9-8.1,2.9-8.2Z"/>
          <path class="cls-2" d="M110.8,222.5c-17.7,3-34.4-8.9-37.4-26.5-3-17.7,8.9-34.4,26.5-37.4,17.7-3,34.4,8.9,37.4,26.5,1.4,8.5-.5,17.2-5.5,24.2-5,7-12.5,11.8-21,13.2Z"/>
        </g>
        <path class="cls-1" d="M49.6,17.6c-23.3,19.1-30,52.1-15.9,78.8"/>
        <polygon class="cls-3" points="24.9 98.9 40.8 107.1 40 89.2 24.9 98.9"/>
        <path class="cls-1" d="M219.7,36.7c27.5,12.4,42.4,42.5,35.8,71.9"/>
        <polygon class="cls-3" points="247.6 103.3 251.4 120.8 264.7 108.8 247.6 103.3"/>
        <path class="cls-1" d="M181,187.9c10.2,28.4-.9,60.1-26.7,75.8"/>
        <polygon class="cls-3" points="152.6 254.3 142.7 269.3 160.6 270.4 152.6 254.3"/>
      </g>
    </g>
  </g>
</svg>